<?xml version="1.0" encoding="utf-8"?>
<svg fill="none" height="24" viewBox="0 0 24 24" width="24" xmlns="http://www.w3.org/2000/svg">
  <g stroke="#2a353d" stroke-width="1.5" transform="matrix(1.103234, 0, 0, 1.08149, -1.862683, -1.234862)" style="">
    <path d="M 7.287 15.443 C 6.038 16.175 2.764 17.67 4.758 19.541 C 5.733 20.455 6.818 21.109 8.182 21.109 L 15.967 21.109 C 17.331 21.109 18.417 20.455 19.391 19.541 C 21.385 17.67 18.111 16.175 16.862 15.443 C 13.933 13.725 10.216 13.725 7.287 15.443 Z" stroke-linecap="round" stroke-linejoin="round" style=""/>
    <path d="M 16.047 7.635 C 16.047 9.795 14.269 11.547 12.075 11.547 C 9.88 11.547 8.102 9.795 8.102 7.635 C 8.102 5.474 9.88 3.723 12.075 3.723 C 14.269 3.723 16.047 5.474 16.047 7.635 Z" style=""/>
  </g>
  <g stroke="#2a353d" stroke-linecap="round" stroke-linejoin="round" stroke-width="3" transform="matrix(0.558287, 0, 0, 0.545428, 11.137179, 6.059631)" style="">
    <path d="m12 4v16"/>
    <path d="M 4 12 L 20 12"/>
  </g>
</svg>